<svg id="Layer_1" data-name="Layer 1" xmlns="http://www.w3.org/2000/svg" xmlns:xlink="http://www.w3.org/1999/xlink" viewBox="0 0 1507.96 405.06"><defs><style>.cls-1{font-size:102px;fill:#333;font-family:Univers-ExtraBlackObl, "Univers 85 Extra Black";font-weight:900;font-style:oblique;letter-spacing:0.23em;}.cls-2{letter-spacing:0.22em;}.cls-3{letter-spacing:0.23em;}.cls-4{letter-spacing:0.22em;}.cls-5{letter-spacing:0.16em;}.cls-6{letter-spacing:0.23em;}.cls-7{fill:url(#linear-gradient);}.cls-8{fill:url(#linear-gradient-2);}.cls-9{fill:url(#linear-gradient-3);}.cls-10{fill:url(#linear-gradient-4);}</style><linearGradient id="linear-gradient" x1="1053.36" y1="595.93" x2="1008.98" y2="344.19" gradientTransform="matrix(1, 0, -0.07, 1, 30.29, 0)" gradientUnits="userSpaceOnUse"><stop offset="0.48"/><stop offset="0.49" stop-color="#8c7ec2"/></linearGradient><linearGradient id="linear-gradient-2" x1="900.8" y1="620.91" x2="856.64" y2="370.44" xlink:href="#linear-gradient"/><linearGradient id="linear-gradient-3" x1="1156.97" y1="577.18" x2="1113" y2="327.85" xlink:href="#linear-gradient"/><linearGradient id="linear-gradient-4" x1="1028.65" y1="599.04" x2="984.58" y2="349.13" xlink:href="#linear-gradient"/></defs><text class="cls-1" transform="translate(1.94 380.17)">A<tspan class="cls-2" x="105.06" y="0">D</tspan><tspan class="cls-3" x="208.28" y="0">AM MOLD</tspan><tspan class="cls-4" x="932.48" y="0">O</tspan><tspan class="cls-5" x="1035.7" y="0">V</tspan><tspan class="cls-6" x="1129.44" y="0">ANYI</tspan></text><path class="cls-7" d="M877.44,498.93q20.56-3.74,41.15-7.35l7.82-28.52A111.09,111.09,0,0,1,934.17,443a92.07,92.07,0,0,1,12.2-18.64,64.87,64.87,0,0,1,16.4-13.93,38.89,38.89,0,0,1,20.32-5.53q10.65,0,17.07,6.55a19.75,19.75,0,0,1,5.75,16,83,83,0,0,1-2.68,15.16l-9.82,36,28.76-4.92q15.27-2.61,30.55-5.19l1.49-5.45A111.16,111.16,0,0,1,1062,443a91.23,91.23,0,0,1,12.2-18.64,64.83,64.83,0,0,1,16.39-13.93,38.92,38.92,0,0,1,20.32-5.53q10.65,0,17.08,6.55a19.78,19.78,0,0,1,5.74,16,82.89,82.89,0,0,1-2.67,15.16l-3.68,13.48q19.88-3.26,39.76-6.43,9.6-1.59,19.2-3.08c1.26-4.57,2.54-9.23,3.83-14a107,107,0,0,0,3.41-19.87q1-13.51-3.41-23.76a42.44,42.44,0,0,0-12.59-16.8,56.08,56.08,0,0,0-19.21-9.83,79.33,79.33,0,0,0-42.95-.62,93.86,93.86,0,0,0-19.68,7.58,107.32,107.32,0,0,0-17.81,11.68,72.65,72.65,0,0,0-14.1,14.95q-2.11-19.67-14.91-28.27t-31.72-8.6a97.84,97.84,0,0,0-41.25,8.6q-18.78,8.61-32.73,27h-.79l8.48-29.9H897.24l-37.33,137.4Z" transform="translate(-278.62 -359)"/><path class="cls-8" d="M878,501.73q-9.37,1.54-18.75,3l-19.51,71.81h55.62l22.26-81.23Q897.77,498.56,878,501.73Z" transform="translate(-278.62 -359)"/><path class="cls-9" d="M1167.63,452.42q-20.62,3.75-41.29,7.38l-31.83,116.75h56L1184.79,452c.27-.95.54-1.91.8-2.87Z" transform="translate(-278.62 -359)"/><path class="cls-10" d="M1022.9,477.66l-30.65,5.2-25.54,93.69h56.4l28.45-103.79Z" transform="translate(-278.62 -359)"/></svg>